
<svg xmlns="http://www.w3.org/2000/svg" version="1.1"
xmlns:xlink="http://www.w3.org/1999/xlink">
  <path d="M40 40
   H45
   A 20 30, 0, 0, 0, 60 70
   V160
   M60 100
   L10 100
   M10 160
   V45
   A 20 30, 0, 0, 1, 23 40
   M75 65
   V160
   M90 160
   V70
   A 20 30, 0, 0, 0, 105 40
   H115
   A 20 20, 0, 1, 1, 115 100
   H90
   M115 100
   A 20 20, 0, 0, 1, 140 120
   V160
   M65 30
           A 15 15, 0, 1, 0, 85 30
           L 75 10 Z
   " 



  style="fill:white;stroke:red;stroke-width:5"


  />
  <defs>
    <path id="path1" d="M0,170 a3,3 0 0 0 150,-100" />
  </defs>
  <text x="10" y="100" style="fill:red;">
    <textPath xlink:href="#path1">艾尔博客</textPath>
  </text>

</svg>
